<?xml version="1.0" encoding="UTF-8"?>
<svg xmlns="http://www.w3.org/2000/svg" version="1.1" viewBox="50 243 470 95">
  <defs>
    <style>
      .st0 { fill: #1db954; }
      .st1 { fill: #0078e5; }
    </style>
  </defs>
  <g>
    <path class="st1" d="M91.96,264.99h17.14v60.23h-17.18v-21.59h-19.44v21.59h-17.22v-60.23h17.18v25.03h19.53v-25.03Z"/>
    <path class="st1" d="M124.97,273.1c-2.55,0-4.73-.92-6.55-2.75-1.82-1.83-2.73-4.03-2.73-6.57s.91-4.69,2.73-6.51c1.82-1.82,4-2.73,6.55-2.73s4.7.91,6.53,2.73c1.83,1.82,2.75,3.99,2.75,6.51s-.92,4.74-2.75,6.57c-1.83,1.83-4.01,2.75-6.53,2.75ZM116.91,277.93h16.13v47.29h-16.13v-47.29Z"/>
    <path class="st1" d="M160.74,277.09c3.47,0,6.49.57,9.05,1.7,2.56,1.13,4.42,2.72,5.57,4.77v-22.85h16.13v64.51h-15.37l-.76-5.63c-1.12,2.1-2.95,3.7-5.5,4.79-2.55,1.09-5.59,1.64-9.11,1.64-6.16,0-11.31-2.27-15.46-6.82-4.14-4.55-6.22-10.42-6.22-17.62s2.07-13.08,6.22-17.64c4.14-4.56,9.3-6.85,15.46-6.85ZM165.28,312.41c2.86,0,5.25-.99,7.18-2.96,1.93-1.97,2.9-4.6,2.9-7.87s-.97-5.9-2.9-7.87c-1.93-1.97-4.33-2.96-7.2-2.96s-5.26.99-7.18,2.96c-1.92,1.97-2.88,4.6-2.88,7.87s.97,5.9,2.92,7.87,4.33,2.96,7.16,2.96Z"/>
    <path class="st1" d="M199.3,277.93h15.37l.76,5.25c2.6-4,7.45-6.02,14.53-6.05v13.61c-9.69,0-14.53,3.61-14.53,10.84v23.65h-16.13v-47.29Z"/>
    <path class="st1" d="M268.15,324.36c-3.14,1.08-6.47,1.62-10,1.62s-6.86-.54-10-1.62c-3.14-1.08-5.92-2.63-8.34-4.66-2.42-2.03-4.34-4.61-5.75-7.73-1.41-3.12-2.12-6.59-2.12-10.39s.71-7.28,2.12-10.42c1.41-3.14,3.33-5.71,5.75-7.73,2.42-2.02,5.2-3.57,8.34-4.66,3.14-1.09,6.47-1.64,10-1.64s6.86.55,10,1.64c3.14,1.09,5.91,2.65,8.34,4.66,2.42,2.02,4.34,4.59,5.75,7.73,1.41,3.14,2.12,6.61,2.12,10.42s-.71,7.27-2.12,10.39c-1.41,3.12-3.33,5.7-5.75,7.73-2.42,2.03-5.2,3.58-8.34,4.66ZM250.93,309.45c1.93,1.97,4.33,2.96,7.2,2.96s5.27-.99,7.2-2.96c1.93-1.97,2.9-4.6,2.9-7.87s-.97-5.9-2.9-7.87-4.33-2.96-7.2-2.96-5.27.99-7.2,2.96c-1.93,1.97-2.9,4.6-2.9,7.87s.97,5.9,2.9,7.87Z"/>
    <path class="st0" d="M332.1,293.76c2.58.7,4.86,2.39,6.87,5.08,2,2.69,3,5.94,3,9.74,0,4.98-1.77,9-5.31,12.05-3.54,3.05-7.92,4.58-13.12,4.58h-33.14v-60.23h31c5.29,0,9.69,1.42,13.19,4.26,3.5,2.84,5.25,6.73,5.25,11.65,0,3.56-.73,6.41-2.18,8.57-1.46,2.16-3.3,3.59-5.54,4.28ZM307.61,278.22v10.46h10.16c1.34,0,2.48-.5,3.42-1.49s1.41-2.25,1.41-3.76-.47-2.72-1.41-3.72c-.94-.99-2.08-1.49-3.42-1.49h-10.16ZM319.92,311.99c1.34,0,2.49-.5,3.44-1.49.95-.99,1.43-2.24,1.43-3.74s-.48-2.74-1.43-3.72c-.95-.98-2.1-1.47-3.44-1.47h-12.31v10.42h12.31Z"/>
    <path class="st0" d="M356.08,273.1c-2.55,0-4.73-.92-6.55-2.75-1.82-1.83-2.73-4.03-2.73-6.57s.91-4.69,2.73-6.51c1.82-1.82,4-2.73,6.55-2.73s4.7.91,6.53,2.73c1.83,1.82,2.75,3.99,2.75,6.51s-.92,4.74-2.75,6.57c-1.83,1.83-4.01,2.75-6.53,2.75ZM348.02,277.93h16.13v47.29h-16.13v-47.29Z"/>
    <path class="st0" d="M406.35,324.36c-3.14,1.08-6.47,1.62-10,1.62s-6.86-.54-10-1.62c-3.14-1.08-5.92-2.63-8.34-4.66-2.42-2.03-4.34-4.61-5.75-7.73-1.41-3.12-2.12-6.59-2.12-10.39s.71-7.28,2.12-10.42c1.41-3.14,3.33-5.71,5.75-7.73,2.42-2.02,5.2-3.57,8.34-4.66,3.14-1.09,6.47-1.64,10-1.64s6.86.55,10,1.64c3.14,1.09,5.92,2.65,8.34,4.66,2.42,2.02,4.34,4.59,5.75,7.73,1.41,3.14,2.12,6.61,2.12,10.42s-.71,7.27-2.12,10.39c-1.41,3.12-3.33,5.7-5.75,7.73s-5.2,3.58-8.34,4.66ZM389.13,309.45c1.93,1.97,4.33,2.96,7.2,2.96s5.27-.99,7.2-2.96c1.93-1.97,2.9-4.6,2.9-7.87s-.97-5.9-2.9-7.87c-1.93-1.97-4.33-2.96-7.2-2.96s-5.27.99-7.2,2.96c-1.93,1.97-2.9,4.6-2.9,7.87s.97,5.9,2.9,7.87Z"/>
  </g>
  <g>
    <g>
      <path class="st0" d="M511.58,293.08l-3.75-34.85-20.67,2.23-6.21.67-3.36.36-7.63.82-3.75.4c-.89.09-9.13,1.15-16.32,9.24l-.23.26c-2.78,3.12-7.96,8.92-7.25,19.87v.1s.1.9.1.9l1.33,12.36.5,4.66,1.93,17.87h0s0,0,0,0v.02s.02,0,.02,0l9.39-1.01,30.89-3.33c.12-.01.25-.03.37-.05.1-.01.2-.03.3-.05.32-.05.74-.13,1.25-.24,1.65-.36,4.19-1.09,6.96-2.49.11-.06.23-.12.34-.18.07-.03.13-.07.2-.1,1.51-.81,3.03-1.8,4.52-2.98,1.25-1.01,2.47-2.19,3.6-3.56.11-.13.22-.26.32-.39,0,0,0,0,0-.01.39-.52,2.12-2.91,3.8-6.24.4-.82.79-1.67,1.18-2.58,0,0,0,.01,0,.02,1.48-3.53,2.6-7.7,2.16-11.74ZM496.87,308.08c-1.08,1.33-2.3,2.38-3.53,3.22-3.83,2.61-7.76,3.13-7.81,3.13l-1.77.19-4.83.52-14.05,1.51c13.36-9.64,22.98-34.65,22.98-34.65l-11.38,11.46c-4.31,4.34-15.76,15.15-22.4,18.74l-.17-1.57-.67-6.2-1.41-13.06c-.43-7.05,2.42-10.23,4.92-13.05l.24-.27c4.76-5.35,10.01-6.08,10.23-6.1l9.37-1.01,4.5-.48,5.53-.6,4.05-.44,8.74-.94,2.76,25.62c.52,4.86-3.6,11.67-5.3,13.98Z"/>
      <path class="st0" d="M483.3,256.72l-9.38,1.01-3.64-9.26-23.48,9.23c-4.45,1.75-8.49,8.42-9.73,10.95-.66,1.54-1.02,3.07-1.19,4.52-.53,4.51.81,8.15.82,8.2l.23.58c.16.41.27.84.31,1.28l3.61,33.51h-.03s-12.61-32.07-12.61-32.07c-.04-.1-.29-.75-.58-1.82-.54-1.99-1.22-5.44-.95-9.51.18-2.67.76-5.61,2.06-8.59l.07-.15c.59-1.23,6.02-12.15,14.58-15.52l31.95-12.56,7.94,20.2Z"/>
    </g>
    <path class="st1" d="M506.81,330.41c1.76,0,3.3-1.22,3.65-2.95.81-3.95,1.21-9.44,1.21-17.03-.34.8-.69,1.57-1.05,2.29-1.06,2.18-2.17,4.02-3.4,5.59,0,0,0,0,0,0h0s-.08.11-.08.11c-.07.08-.14.16-.21.24-.94,1.16-1.96,2.18-3.09,3.08-.05.04-.09.07-.14.11-.88.71-1.77,1.34-2.66,1.88-.47.29-.93.55-1.39.79-.06.03-.12.06-.18.09-.1.05-.21.11-.31.16-2.68,1.37-5.27,2.13-7.35,2.44-.09.01-.18.03-.27.04-.18.03-.3.04-.34.04-10.88,1.22-25.72,2.95-25.72,2.95,0,0-1.35.15.61.15h40.71Z"/>
  </g>
</svg>
